# xmcd
#
# Track frame offsets:
#	150
#	12803
#	35107
#	72689
#	108735
#	162782
#	177870
#	208958
#	249856
#	277097
#	301826
#
# Disc length: 4422 seconds
#
# Revision: 1
# Processed by: cddbd v1.5.2PL0 Copyright (c) Steve Scherf et al.
# Submitted via: audiograbber 1.83.01
#
DISCID=9e11440b
DTITLE=Grateful Dead - 87-03-02 Henry J Kaiser Convention Centre, Oakland CA
DYEAR=1900
DGENRE=
TTITLE0=Tuning
TTITLE1=Jack Straw
TTITLE2=Althea
TTITLE3=CC Rider
TTITLE4=Bird Song
TTITLE5=BIODTL
TTITLE6=Ramble On Rose
TTITLE7=Feel Like A Stranger
TTITLE8=China Cat Sunflower
TTITLE9=I Know Your Rider
TTITLE10=Men Smart Women Smarter
EXTD=
EXTT0=
EXTT1=
EXTT2=
EXTT3=
EXTT4=
EXTT5=
EXTT6=
EXTT7=
EXTT8=
EXTT9=
EXTT10=
PLAYORDER=
